<svg width="512" height="512" viewBox="0 0 512 512" fill="none" xmlns="http://www.w3.org/2000/svg">
  <defs>
    <linearGradient id="heartGradient" x1="162" y1="120" x2="351" y2="304" gradientUnits="userSpaceOnUse">
      <stop stop-color="#F7B7CD"/>
      <stop offset="0.54" stop-color="#DA8DB2"/>
      <stop offset="1" stop-color="#9370AB"/>
    </linearGradient>
    <linearGradient id="tubeGradient" x1="122" y1="132" x2="403" y2="398" gradientUnits="userSpaceOnUse">
      <stop stop-color="#F7DAE5"/>
      <stop offset="1" stop-color="#E8C2D0"/>
    </linearGradient>
    <linearGradient id="metalGradient" x1="180" y1="356" x2="298" y2="454" gradientUnits="userSpaceOnUse">
      <stop stop-color="#FFF7FB"/>
      <stop offset="1" stop-color="#EBD8E4"/>
    </linearGradient>
    <filter id="softShadow" x="90" y="88" width="332" height="378" filterUnits="userSpaceOnUse" color-interpolation-filters="sRGB">
      <feFlood flood-opacity="0" result="BackgroundImageFix"/>
      <feColorMatrix in="SourceAlpha" type="matrix" values="0 0 0 0 0 0 0 0 0 0 0 0 0 0 0 0 0 0 127 0" result="hardAlpha"/>
      <feOffset dy="18"/>
      <feGaussianBlur stdDeviation="18"/>
      <feColorMatrix type="matrix" values="0 0 0 0 0.27451 0 0 0 0 0.172549 0 0 0 0 0.262745 0 0 0 0.16 0"/>
      <feBlend mode="normal" in2="BackgroundImageFix" result="effect1_dropShadow"/>
      <feBlend mode="normal" in="SourceGraphic" in2="effect1_dropShadow" result="shape"/>
    </filter>
  </defs>

  <g filter="url(#softShadow)">
    <path
      d="M256.5 132.8C279.3 104.6 320.1 97.6 351.9 116.9C387.2 138.4 398.4 183.9 377.1 217.1C359.5 244.7 326.6 273.4 278.5 311.2C265.7 321.2 247.4 321.2 234.6 311.2C186.5 273.4 153.6 244.7 136 217.1C114.7 183.9 125.9 138.4 161.2 116.9C193 97.6 233.8 104.6 256.5 132.8Z"
      fill="url(#heartGradient)"
      stroke="#855A72"
      stroke-width="12"
      stroke-linejoin="round"
    />

    <path
      d="M178 143C162.7 152.4 149.8 165.4 141.4 180.9C123.4 214.4 128 257.6 165.9 288.3L190.6 308.3"
      stroke="#855A72"
      stroke-width="18"
      stroke-linecap="round"
      stroke-linejoin="round"
      fill="none"
    />

    <path
      d="M334.8 143C350.1 152.4 363 165.4 371.4 180.9C389.4 214.4 384.8 257.6 346.9 288.3L322.2 308.3"
      stroke="#855A72"
      stroke-width="18"
      stroke-linecap="round"
      stroke-linejoin="round"
      fill="none"
    />

    <path
      d="M146.3 176.1C121.3 210.7 115 248.9 128.2 290.6C140.8 330.4 170.4 364.9 215.8 389"
      stroke="url(#tubeGradient)"
      stroke-width="28"
      stroke-linecap="round"
      stroke-linejoin="round"
      fill="none"
    />

    <path
      d="M366.7 176.1C391.7 210.7 398 248.9 384.8 290.6C372.2 330.4 342.6 364.9 297.2 389"
      stroke="url(#tubeGradient)"
      stroke-width="28"
      stroke-linecap="round"
      stroke-linejoin="round"
      fill="none"
    />

    <circle cx="230.5" cy="401.5" r="20.5" fill="url(#metalGradient)" stroke="#855A72" stroke-width="10"/>
    <circle cx="282.5" cy="401.5" r="20.5" fill="url(#metalGradient)" stroke="#855A72" stroke-width="10"/>

    <path
      d="M227 393.5L205.4 351.3C201.5 343.6 207.1 334.5 216 334.5H297C305.9 334.5 311.5 343.6 307.6 351.3L286 393.5"
      fill="#FFE7D9"
      stroke="#855A72"
      stroke-width="12"
      stroke-linejoin="round"
    />

    <path
      d="M240 349.5H272"
      stroke="#E8BAAA"
      stroke-width="10"
      stroke-linecap="round"
    />

    <path
      d="M214.7 113.3C226.6 108 239.4 105.4 252.4 105.7"
      stroke="#FFF7FB"
      stroke-width="14"
      stroke-linecap="round"
      opacity="0.72"
    />
  </g>
</svg>
