<svg width="1600" height="1000" viewBox="0 0 1600 1000" fill="none" xmlns="http://www.w3.org/2000/svg">
  <defs>
    <linearGradient id="bg" x1="145" y1="70" x2="1450" y2="930" gradientUnits="userSpaceOnUse">
      <stop stop-color="#FFF9FD"/>
      <stop offset="1" stop-color="#F5ECF5"/>
    </linearGradient>
    <linearGradient id="panel" x1="300" y1="130" x2="1270" y2="810" gradientUnits="userSpaceOnUse">
      <stop stop-color="#FFFEFF"/>
      <stop offset="1" stop-color="#F7EFF4"/>
    </linearGradient>
    <linearGradient id="heartGradientPreview" x1="162" y1="120" x2="351" y2="304" gradientUnits="userSpaceOnUse">
      <stop stop-color="#F7B7CD"/>
      <stop offset="0.54" stop-color="#DA8DB2"/>
      <stop offset="1" stop-color="#9370AB"/>
    </linearGradient>
    <linearGradient id="tubeGradientPreview" x1="122" y1="132" x2="403" y2="398" gradientUnits="userSpaceOnUse">
      <stop stop-color="#F7DAE5"/>
      <stop offset="1" stop-color="#E8C2D0"/>
    </linearGradient>
    <linearGradient id="metalGradientPreview" x1="180" y1="356" x2="298" y2="454" gradientUnits="userSpaceOnUse">
      <stop stop-color="#FFF7FB"/>
      <stop offset="1" stop-color="#EBD8E4"/>
    </linearGradient>
    <filter id="panelShadow" x="224" y="84" width="1152" height="812" filterUnits="userSpaceOnUse" color-interpolation-filters="sRGB">
      <feFlood flood-opacity="0" result="BackgroundImageFix"/>
      <feColorMatrix in="SourceAlpha" type="matrix" values="0 0 0 0 0 0 0 0 0 0 0 0 0 0 0 0 0 0 127 0" result="hardAlpha"/>
      <feOffset dy="24"/>
      <feGaussianBlur stdDeviation="28"/>
      <feColorMatrix type="matrix" values="0 0 0 0 0.298039 0 0 0 0 0.196078 0 0 0 0 0.278431 0 0 0 0.16 0"/>
      <feBlend mode="normal" in2="BackgroundImageFix" result="effect1_dropShadow"/>
      <feBlend mode="normal" in="SourceGraphic" in2="effect1_dropShadow" result="shape"/>
    </filter>
  </defs>

  <rect width="1600" height="1000" fill="url(#bg)"/>
  <circle cx="1340" cy="180" r="180" fill="#E8D9EB" fill-opacity="0.54"/>
  <circle cx="190" cy="860" r="240" fill="#F9DEE9" fill-opacity="0.3"/>
  <circle cx="1350" cy="845" r="230" fill="#F4E5EC" fill-opacity="0.42"/>

  <g filter="url(#panelShadow)">
    <rect x="280" y="120" width="1040" height="700" rx="52" fill="url(#panel)"/>
  </g>

  <rect x="338" y="185" width="276" height="276" rx="68" fill="#F9EEF4"/>
  <g transform="translate(210 78) scale(0.76)">
    <path d="M256.5 132.8C279.3 104.6 320.1 97.6 351.9 116.9C387.2 138.4 398.4 183.9 377.1 217.1C359.5 244.7 326.6 273.4 278.5 311.2C265.7 321.2 247.4 321.2 234.6 311.2C186.5 273.4 153.6 244.7 136 217.1C114.7 183.9 125.9 138.4 161.2 116.9C193 97.6 233.8 104.6 256.5 132.8Z" fill="url(#heartGradientPreview)" stroke="#855A72" stroke-width="12" stroke-linejoin="round"/>
    <path d="M178 143C162.7 152.4 149.8 165.4 141.4 180.9C123.4 214.4 128 257.6 165.9 288.3L190.6 308.3" stroke="#855A72" stroke-width="18" stroke-linecap="round" stroke-linejoin="round" fill="none"/>
    <path d="M334.8 143C350.1 152.4 363 165.4 371.4 180.9C389.4 214.4 384.8 257.6 346.9 288.3L322.2 308.3" stroke="#855A72" stroke-width="18" stroke-linecap="round" stroke-linejoin="round" fill="none"/>
    <path d="M146.3 176.1C121.3 210.7 115 248.9 128.2 290.6C140.8 330.4 170.4 364.9 215.8 389" stroke="url(#tubeGradientPreview)" stroke-width="28" stroke-linecap="round" stroke-linejoin="round" fill="none"/>
    <path d="M366.7 176.1C391.7 210.7 398 248.9 384.8 290.6C372.2 330.4 342.6 364.9 297.2 389" stroke="url(#tubeGradientPreview)" stroke-width="28" stroke-linecap="round" stroke-linejoin="round" fill="none"/>
    <circle cx="230.5" cy="401.5" r="20.5" fill="url(#metalGradientPreview)" stroke="#855A72" stroke-width="10"/>
    <circle cx="282.5" cy="401.5" r="20.5" fill="url(#metalGradientPreview)" stroke="#855A72" stroke-width="10"/>
    <path d="M227 393.5L205.4 351.3C201.5 343.6 207.1 334.5 216 334.5H297C305.9 334.5 311.5 343.6 307.6 351.3L286 393.5" fill="#FFE7D9" stroke="#855A72" stroke-width="12" stroke-linejoin="round"/>
    <path d="M240 349.5H272" stroke="#E8BAAA" stroke-width="10" stroke-linecap="round"/>
  </g>

  <text x="680" y="288" fill="#7B5167" font-family="Georgia, 'Times New Roman', serif" font-size="112" font-weight="700" letter-spacing="-1.5">HerCare</text>
  <text x="681" y="356" fill="#A67A90" font-family="Segoe UI, Arial, sans-serif" font-size="34" letter-spacing="4.3">STETHOSCOPE HUGGING HEART</text>

  <text x="344" y="540" fill="#5D4654" font-family="Georgia, 'Times New Roman', serif" font-size="50" font-weight="700">Why this could work better</text>
  <text x="346" y="612" fill="#7A6671" font-family="Segoe UI, Arial, sans-serif" font-size="35">• feels more care-focused and a little more nurse-coded</text>
  <text x="346" y="670" fill="#7A6671" font-family="Segoe UI, Arial, sans-serif" font-size="35">• still soft and sweet, but more logo-like than illustrative</text>
  <text x="346" y="728" fill="#7A6671" font-family="Segoe UI, Arial, sans-serif" font-size="35">• clearer story: support, listening, and care around the heart</text>

  <rect x="980" y="524" width="258" height="232" rx="50" fill="#2A1F27"/>
  <g transform="translate(990 540) scale(0.46)">
    <path d="M256.5 132.8C279.3 104.6 320.1 97.6 351.9 116.9C387.2 138.4 398.4 183.9 377.1 217.1C359.5 244.7 326.6 273.4 278.5 311.2C265.7 321.2 247.4 321.2 234.6 311.2C186.5 273.4 153.6 244.7 136 217.1C114.7 183.9 125.9 138.4 161.2 116.9C193 97.6 233.8 104.6 256.5 132.8Z" fill="url(#heartGradientPreview)" stroke="#F5E9F0" stroke-width="12" stroke-linejoin="round"/>
    <path d="M178 143C162.7 152.4 149.8 165.4 141.4 180.9C123.4 214.4 128 257.6 165.9 288.3L190.6 308.3" stroke="#F5E9F0" stroke-width="18" stroke-linecap="round" stroke-linejoin="round" fill="none"/>
    <path d="M334.8 143C350.1 152.4 363 165.4 371.4 180.9C389.4 214.4 384.8 257.6 346.9 288.3L322.2 308.3" stroke="#F5E9F0" stroke-width="18" stroke-linecap="round" stroke-linejoin="round" fill="none"/>
    <path d="M146.3 176.1C121.3 210.7 115 248.9 128.2 290.6C140.8 330.4 170.4 364.9 215.8 389" stroke="url(#tubeGradientPreview)" stroke-width="28" stroke-linecap="round" stroke-linejoin="round" fill="none"/>
    <path d="M366.7 176.1C391.7 210.7 398 248.9 384.8 290.6C372.2 330.4 342.6 364.9 297.2 389" stroke="url(#tubeGradientPreview)" stroke-width="28" stroke-linecap="round" stroke-linejoin="round" fill="none"/>
    <circle cx="230.5" cy="401.5" r="20.5" fill="url(#metalGradientPreview)" stroke="#F5E9F0" stroke-width="10"/>
    <circle cx="282.5" cy="401.5" r="20.5" fill="url(#metalGradientPreview)" stroke="#F5E9F0" stroke-width="10"/>
    <path d="M227 393.5L205.4 351.3C201.5 343.6 207.1 334.5 216 334.5H297C305.9 334.5 311.5 343.6 307.6 351.3L286 393.5" fill="#FFE7D9" stroke="#F5E9F0" stroke-width="12" stroke-linejoin="round"/>
  </g>
  <text x="1018" y="736" fill="#F5E9F0" font-family="Segoe UI, Arial, sans-serif" font-size="24" letter-spacing="2.2">APP BADGE FEEL</text>
</svg>
